<svg width="50" height="50" viewBox="0 0 50 50" fill="none" xmlns="http://www.w3.org/2000/svg">
<g clip-path="url(#clip0_236_17)">
<path d="M24.225 0.205746C24.461 0.0709172 24.7282 0 25 0C25.2718 0 25.539 0.0709172 25.775 0.205746L37.4938 6.90262C37.7329 7.03923 37.9317 7.23661 38.07 7.47479C38.2083 7.71296 38.2812 7.98346 38.2812 8.25887V20.7432L49.2125 26.9932C49.4507 27.1293 49.6489 27.3257 49.7872 27.5627C49.9254 27.7997 49.9988 28.0689 50 28.3432V41.737C49.9999 42.0124 49.927 42.2829 49.7887 42.5211C49.6504 42.7593 49.4516 42.9566 49.2125 43.0932L37.4938 49.7901C37.2577 49.9249 36.9906 49.9959 36.7188 49.9959C36.4469 49.9959 36.1798 49.9249 35.9437 49.7901L25 43.5401L14.0563 49.7932C13.8202 49.9281 13.5531 49.999 13.2812 49.999C13.0094 49.999 12.7423 49.9281 12.5062 49.7932L0.7875 43.0964C0.548353 42.9598 0.349562 42.7624 0.211267 42.5242C0.0729727 42.286 8.88345e-05 42.0155 0 41.7401L0 28.3464C8.88345e-05 28.071 0.0729727 27.8005 0.211267 27.5623C0.349562 27.3241 0.548353 27.1267 0.7875 26.9901L11.7188 20.7432V8.25887C11.7188 7.98346 11.7917 7.71296 11.93 7.47479C12.0683 7.23661 12.2671 7.03923 12.5062 6.90262L24.225 0.205746ZM13.2812 23.4495L4.7125 28.3464L13.2812 33.2432L21.85 28.3464L13.2812 23.4495ZM23.4375 31.0401L14.8438 35.9495V45.7432L23.4375 40.8339V31.0401ZM26.5625 40.8339L35.1562 45.7432V35.9495L26.5625 31.0401V40.8339ZM28.15 28.3464L36.7188 33.2432L45.2875 28.3464L36.7188 23.4495L28.15 28.3464ZM35.1562 20.7432V10.9495L26.5625 15.862V25.6557L35.1562 20.7432ZM23.4375 25.6557V15.862L14.8438 10.9495V20.7432L23.4375 25.6557ZM16.4312 8.25887L25 13.1557L33.5687 8.25887L25 3.362L16.4312 8.25887ZM46.875 31.0401L38.2812 35.9495V45.7432L46.875 40.8339V31.0401ZM11.7188 45.7432V35.9495L3.125 31.0401V40.8339L11.7188 45.7432Z" fill="white"/>
</g>
<defs>
<clipPath id="clip0_236_17">
<rect width="50" height="50" fill="white"/>
</clipPath>
</defs>
</svg>
