<svg width="30" height="30" viewBox="0 0 30 30" fill="none" xmlns="http://www.w3.org/2000/svg">
<path d="M23.4124 6.76238L21.8124 8.01237L14.9999 13.0749L8.18744 7.96238L6.58744 6.71238C6.21051 6.40056 5.75038 6.20618 5.26405 6.15331C4.77772 6.10045 4.28657 6.19143 3.85145 6.41498C3.41633 6.63853 3.05635 6.98483 2.81611 7.41097C2.57588 7.83711 2.46595 8.32437 2.49994 8.81238V23.2999C2.49994 23.7507 2.67905 24.1831 2.99786 24.502C3.31667 24.8208 3.74907 24.9999 4.19994 24.9999H8.18744V15.3499L14.9999 20.4624L21.8124 15.3499V24.9999H25.7999C26.2508 24.9999 26.6832 24.8208 27.002 24.502C27.3208 24.1831 27.4999 23.7507 27.4999 23.2999V8.81238C27.5234 8.32858 27.4058 7.84838 27.1615 7.43015C26.9172 7.01193 26.5566 6.67368 26.1236 6.45654C25.6907 6.23939 25.204 6.1527 24.7226 6.20699C24.2413 6.26129 23.7861 6.45423 23.4124 6.76238Z" fill="#B2B4B2"/>
</svg>
