<svg width="30" height="30" viewBox="0 0 30 30" fill="none" xmlns="http://www.w3.org/2000/svg">
<path d="M23.4125 6.76238L21.8125 8.01237L15 13.0749L8.1875 7.96238L6.5875 6.71238C6.21057 6.40056 5.75044 6.20618 5.26411 6.15331C4.77778 6.10045 4.28664 6.19143 3.85151 6.41498C3.41639 6.63853 3.05641 6.98483 2.81618 7.41097C2.57594 7.83711 2.46601 8.32437 2.5 8.81238V23.2999C2.5 23.7507 2.67911 24.1831 2.99792 24.502C3.31673 24.8208 3.74913 24.9999 4.2 24.9999H8.1875V15.3499L15 20.4624L21.8125 15.3499V24.9999H25.8C26.2509 24.9999 26.6833 24.8208 27.0021 24.502C27.3209 24.1831 27.5 23.7507 27.5 23.2999V8.81238C27.5235 8.32858 27.4059 7.84838 27.1616 7.43015C26.9172 7.01193 26.5567 6.67368 26.1237 6.45654C25.6907 6.23939 25.204 6.1527 24.7227 6.20699C24.2414 6.26129 23.7862 6.45423 23.4125 6.76238Z" fill="white"/>
</svg>
