<svg width="250" height="347" viewBox="0 0 250 347" fill="none" xmlns="http://www.w3.org/2000/svg">
<g clip-path="url(#clip0_263_15)">
<path d="M224.387 76.5694C222.73 74.4595 220.58 72.7891 218.126 71.7055C215.672 70.6219 212.989 70.1581 210.313 70.3551L99.3259 78.6002C96.3675 78.818 93.524 79.8357 91.0993 81.5445C88.6746 83.2533 86.7599 85.589 85.5599 88.3018L80.1587 100.534L143.44 190.201L167.114 187.235L180.871 206.728L289.768 193.087L295.169 180.855C296.365 178.14 296.802 175.152 296.431 172.209C296.06 169.266 294.897 166.479 293.065 164.146L224.387 76.5694ZM282.06 210.544L191.569 221.882L244.152 296.394L282.06 210.544ZM236.052 313.321L159.412 204.678L27.4978 221.216C26.9583 224.768 27.603 228.4 29.3324 231.55C31.0618 234.7 33.7798 237.193 37.067 238.645L216.732 317.976C220.019 319.427 223.693 319.756 227.186 318.912C230.679 318.068 233.79 316.113 236.052 313.321ZM34.5499 203.826L125.04 192.488L72.4504 117.991L34.5499 203.826ZM209.099 54.021C214.456 53.6236 219.829 54.5507 224.743 56.7205C229.657 58.8903 233.961 62.2361 237.276 66.4628L305.954 154.039C309.616 158.708 311.94 164.285 312.678 170.172C313.415 176.06 312.538 182.038 310.141 187.466L253.287 316.226C249.78 324.167 243.263 330.391 235.167 333.527C227.072 336.663 218.063 336.455 210.121 332.948L30.4561 253.617C22.5144 250.11 16.291 243.592 13.1549 235.497C10.0189 227.402 10.2271 218.392 13.7338 210.451L70.5878 81.6908C72.9841 76.2624 76.8109 71.5874 81.6589 68.1659C86.507 64.7444 92.1939 62.7051 98.1115 62.2661L209.099 54.021Z" fill="#0000D1"/>
</g>
<defs>
<clipPath id="clip0_263_15">
<rect width="261.867" height="261.867" fill="white" transform="translate(106.287 0.841797) rotate(23.8239)"/>
</clipPath>
</defs>
</svg>
