<svg width="50" height="50" viewBox="0 0 50 50" fill="none" xmlns="http://www.w3.org/2000/svg">
<path d="M17.1875 21.875C16.7731 21.875 16.3757 22.0396 16.0826 22.3326C15.7896 22.6257 15.625 23.0231 15.625 23.4375C15.625 23.8519 15.7896 24.2493 16.0826 24.5424C16.3757 24.8354 16.7731 25 17.1875 25H32.8125C33.2269 25 33.6243 24.8354 33.9174 24.5424C34.2104 24.2493 34.375 23.8519 34.375 23.4375C34.375 23.0231 34.2104 22.6257 33.9174 22.3326C33.6243 22.0396 33.2269 21.875 32.8125 21.875H17.1875ZM15.625 29.6875C15.625 29.2731 15.7896 28.8757 16.0826 28.5826C16.3757 28.2896 16.7731 28.125 17.1875 28.125H32.8125C33.2269 28.125 33.6243 28.2896 33.9174 28.5826C34.2104 28.8757 34.375 29.2731 34.375 29.6875C34.375 30.1019 34.2104 30.4993 33.9174 30.7924C33.6243 31.0854 33.2269 31.25 32.8125 31.25H17.1875C16.7731 31.25 16.3757 31.0854 16.0826 30.7924C15.7896 30.4993 15.625 30.1019 15.625 29.6875ZM15.625 35.9375C15.625 35.5231 15.7896 35.1257 16.0826 34.8326C16.3757 34.5396 16.7731 34.375 17.1875 34.375H23.4375C23.8519 34.375 24.2493 34.5396 24.5424 34.8326C24.8354 35.1257 25 35.5231 25 35.9375C25 36.3519 24.8354 36.7493 24.5424 37.0424C24.2493 37.3354 23.8519 37.5 23.4375 37.5H17.1875C16.7731 37.5 16.3757 37.3354 16.0826 37.0424C15.7896 36.7493 15.625 36.3519 15.625 35.9375Z" fill="white"/>
<path d="M29.6875 0H12.5C10.8424 0 9.25268 0.65848 8.08058 1.83058C6.90848 3.00269 6.25 4.5924 6.25 6.25V43.75C6.25 45.4076 6.90848 46.9973 8.08058 48.1694C9.25268 49.3415 10.8424 50 12.5 50H37.5C39.1576 50 40.7473 49.3415 41.9194 48.1694C43.0915 46.9973 43.75 45.4076 43.75 43.75V14.0625L29.6875 0ZM29.6875 3.125V9.375C29.6875 10.6182 30.1814 11.8105 31.0604 12.6896C31.9395 13.5686 33.1318 14.0625 34.375 14.0625H40.625V43.75C40.625 44.5788 40.2958 45.3737 39.7097 45.9597C39.1237 46.5458 38.3288 46.875 37.5 46.875H12.5C11.6712 46.875 10.8763 46.5458 10.2903 45.9597C9.70424 45.3737 9.375 44.5788 9.375 43.75V6.25C9.375 5.4212 9.70424 4.62634 10.2903 4.04029C10.8763 3.45424 11.6712 3.125 12.5 3.125H29.6875Z" fill="white"/>
</svg>
