<svg width="72" height="48" viewBox="0 0 72 48" fill="none" xmlns="http://www.w3.org/2000/svg">
<path d="M18.5 30.3079C20.8857 30.3079 23.1745 29.3745 24.8626 27.7117C26.5509 26.0487 27.5 23.7925 27.5 21.4391C27.5 19.0857 26.5509 16.8295 24.8626 15.1666C23.1745 13.5038 20.8857 12.5703 18.5 12.5703C16.1143 12.5703 13.8255 13.5038 12.1374 15.1666C10.4491 16.8295 9.5 19.0857 9.5 21.4391C9.5 23.7925 10.4491 26.0487 12.1374 27.7117C13.8255 29.3745 16.1143 30.3079 18.5 30.3079ZM24.0833 21.4391C24.0833 22.8955 23.496 24.293 22.4494 25.324C21.4026 26.3551 19.982 26.935 18.5 26.935C17.018 26.935 15.5974 26.3551 14.5506 25.324C13.504 24.293 12.9167 22.8955 12.9167 21.4391C12.9167 19.9828 13.504 18.5853 14.5506 17.5543C15.5974 16.5232 17.018 15.9433 18.5 15.9433C19.982 15.9433 21.4026 16.5232 22.4494 17.5543C23.496 18.5853 24.0833 19.9828 24.0833 21.4391ZM33.0833 47.2956C33.0833 47.5456 33.0835 47.5456 33.0836 47.5456H33.084L33.0848 47.5456L33.0874 47.5456L33.0957 47.5455L33.1243 47.5447C33.1486 47.5439 33.183 47.5424 33.2262 47.5393C33.3125 47.5333 33.4342 47.5212 33.5796 47.4974C33.8691 47.4498 34.2591 47.3543 34.6521 47.1607C35.0461 46.9667 35.4482 46.6716 35.7513 46.2237C36.0556 45.774 36.25 45.1854 36.25 44.4226C36.25 42.9208 35.4951 39.9832 32.8942 37.4213C30.2862 34.8524 25.8433 32.6809 18.5 32.6809C11.1567 32.6809 6.71378 34.8524 4.10581 37.4213C1.50493 39.9832 0.75 42.9208 0.75 44.4226C0.75 45.1854 0.944362 45.774 1.24869 46.2237C1.55183 46.6716 1.95394 46.9667 2.34788 47.1607C2.74092 47.3543 3.13089 47.4498 3.42044 47.4974C3.56581 47.5212 3.6875 47.5333 3.7738 47.5393C3.81699 47.5424 3.85144 47.5439 3.87571 47.5447L3.90433 47.5455L3.9126 47.5456L3.91517 47.5456L3.91605 47.5456H3.91639C3.91654 47.5456 3.91667 47.5456 3.91667 47.2956V47.5456H33.0833V47.2956ZM30.4812 39.8087C32.205 41.5066 32.7242 43.3337 32.817 44.1611H4.18376C4.27829 43.3325 4.79577 41.5059 6.51877 39.8087C8.36464 37.9905 11.8726 36.0538 18.5 36.0538C25.1245 36.0538 28.6354 37.9905 30.4812 39.8087Z" fill="white" stroke="white" stroke-width="0.5"/>
<path d="M53.5 18.4876C55.8857 18.4876 58.1745 17.5541 59.8626 15.8913C61.5509 14.2284 62.5 11.9722 62.5 9.61882C62.5 7.26543 61.5509 5.00921 59.8626 3.34629C58.1745 1.68349 55.8857 0.75 53.5 0.75C51.1143 0.75 48.8255 1.68349 47.1374 3.34629C45.4491 5.00921 44.5 7.26543 44.5 9.61882C44.5 11.9722 45.4491 14.2284 47.1374 15.8913C48.8255 17.5541 51.1143 18.4876 53.5 18.4876ZM59.0833 9.61882C59.0833 11.0752 58.496 12.4727 57.4494 13.5037C56.4026 14.5348 54.982 15.1147 53.5 15.1147C52.018 15.1147 50.5974 14.5348 49.5506 13.5037C48.504 12.4727 47.9167 11.0752 47.9167 9.61882C47.9167 8.16245 48.504 6.76495 49.5506 5.73397C50.5974 4.70287 52.018 4.12294 53.5 4.12294C54.982 4.12294 56.4026 4.70287 57.4494 5.73397C58.496 6.76495 59.0833 8.16245 59.0833 9.61882ZM68.0833 35.4753C68.0833 35.7253 68.0835 35.7253 68.0836 35.7253H68.084L68.0848 35.7253L68.0874 35.7252L68.0957 35.7251L68.1243 35.7244C68.1486 35.7236 68.183 35.7221 68.2262 35.719C68.3125 35.713 68.4342 35.7009 68.5796 35.6771C68.8691 35.6295 69.2591 35.534 69.6521 35.3404C70.0461 35.1464 70.4482 34.8513 70.7513 34.4034C71.0556 33.9537 71.25 33.3651 71.25 32.6023C71.25 31.1005 70.4951 28.1629 67.8942 25.601C65.2862 23.0321 60.8433 20.8606 53.5 20.8606C46.1567 20.8606 41.7138 23.0321 39.1058 25.601C36.5049 28.1629 35.75 31.1005 35.75 32.6023C35.75 33.3651 35.9444 33.9537 36.2487 34.4034C36.5518 34.8513 36.9539 35.1464 37.3479 35.3404C37.7409 35.534 38.1309 35.6295 38.4204 35.6771C38.5658 35.7009 38.6875 35.713 38.7738 35.719C38.817 35.7221 38.8514 35.7236 38.8757 35.7244L38.9043 35.7251L38.9126 35.7252L38.9152 35.7253L38.9161 35.7253H38.9164C38.9165 35.7253 38.9167 35.7253 38.9167 35.4753V35.7253H68.0833V35.4753ZM65.4812 27.9884C67.205 29.6863 67.7242 31.5134 67.817 32.3408H39.1838C39.2783 31.5122 39.7958 29.6855 41.5188 27.9884C43.3646 26.1702 46.8726 24.2335 53.5 24.2335C60.1245 24.2335 63.6354 26.1702 65.4812 27.9884Z" fill="white" stroke="white" stroke-width="0.5"/>
</svg>
