<svg width="30" height="27" viewBox="0 0 30 27" fill="none" xmlns="http://www.w3.org/2000/svg">
<path d="M20.1621 12.3188C18.4688 12.3188 18.2344 13.8376 18.2344 13.8376H21.832C21.832 13.8376 21.8555 12.3188 20.1621 12.3188ZM12 13.8376H8.8125V16.4743H11.8418C12.2988 16.4638 13.1543 16.3478 13.1543 15.1929C13.1543 13.8218 12 13.8376 12 13.8376Z" fill="#B2B4B2"/>
<path d="M15 1.6875C7.75195 1.6875 1.875 6.97676 1.875 13.5C1.875 20.0232 7.75195 25.3125 15 25.3125C22.248 25.3125 28.125 20.0232 28.125 13.5C28.125 6.97676 22.248 1.6875 15 1.6875ZM17.7656 8.94375H22.2832V10.1566H17.7656V8.94375ZM15.4805 15.3141C15.4805 18.3199 12 18.225 12 18.225H6.30469V8.36367H12C13.7344 8.36367 15.0996 9.22324 15.0996 10.9898C15.0996 12.7564 13.4297 12.8672 13.4297 12.8672C15.6328 12.8672 15.4805 15.3141 15.4805 15.3141ZM23.9297 15.1506H18.252C18.252 16.9805 20.1797 16.8645 20.1797 16.8645C22.002 16.8645 21.9375 15.8045 21.9375 15.8045H23.8652C23.8652 18.6205 20.1152 18.4254 20.1152 18.4254C15.6211 18.4254 15.9082 14.6549 15.9082 14.6549C15.9082 14.6549 15.9023 10.8686 20.1152 10.8686C24.5508 10.8738 23.9297 15.1506 23.9297 15.1506Z" fill="#B2B4B2"/>
<path d="M12.7734 11.1427C12.7734 10.1196 12 10.1196 12 10.1196H8.8125V12.3187H11.8008C12.3164 12.3187 12.7734 12.1657 12.7734 11.1427Z" fill="#B2B4B2"/>
</svg>
