<svg width="39" height="40" viewBox="0 0 39 40" fill="none" xmlns="http://www.w3.org/2000/svg">
<g clip-path="url(#clip0_62_147)">
<path d="M19.5 0C14.3295 0 9.36609 2.10844 5.71289 5.85781C2.05592 9.60868 0.00101299 14.6956 0 20C0 25.3022 2.05664 30.3928 5.71289 34.1422C9.36609 37.8916 14.3295 40 19.5 40C24.6705 40 29.6339 37.8916 33.2871 34.1422C36.9434 30.3928 39 25.3022 39 20C39 14.6978 36.9434 9.60719 33.2871 5.85781C29.6339 2.10844 24.6705 0 19.5 0Z" fill="url(#paint0_linear_62_147)"/>
<path d="M8.8268 19.7888C14.5123 17.2488 18.3026 15.5741 20.1977 14.7651C25.6151 12.4548 26.7394 12.0535 27.4737 12.0399C27.6352 12.0373 27.9947 12.0782 28.2293 12.2727C28.4243 12.4368 28.4791 12.6587 28.5066 12.8144C28.5309 12.9701 28.5645 13.3248 28.537 13.6016C28.2445 16.7641 26.974 24.4385 26.3281 27.9807C26.0569 29.4794 25.5176 29.9819 24.9966 30.031C23.8631 30.1379 23.0039 29.2635 21.907 28.5263C20.1916 27.3723 19.2227 26.6541 17.5561 25.5282C15.6305 24.2269 16.8797 23.5116 17.9766 22.3429C18.263 22.0369 23.2538 17.3823 23.3482 16.9601C23.3604 16.9073 23.3726 16.7104 23.2568 16.6066C23.1441 16.5026 22.9765 16.5382 22.8546 16.5663C22.6809 16.6063 19.9418 18.4651 14.628 22.1423C13.8511 22.6904 13.1473 22.9576 12.5135 22.9435C11.8188 22.9282 10.4782 22.5398 9.48188 22.2079C8.26313 21.8007 7.29117 21.5854 7.37649 20.8938C7.41914 20.5338 7.9036 20.1654 8.8268 19.7888Z" fill="white"/>
</g>
<defs>
<linearGradient id="paint0_linear_62_147" x1="19.5" y1="0" x2="19.5" y2="40" gradientUnits="userSpaceOnUse">
<stop stop-color="#2AABEE"/>
<stop offset="1" stop-color="#229ED9"/>
</linearGradient>
<clipPath id="clip0_62_147">
<rect width="39" height="40" fill="white"/>
</clipPath>
</defs>
</svg>
