<svg width="39" height="39" viewBox="0 0 39 39" fill="none" xmlns="http://www.w3.org/2000/svg">
<g clip-path="url(#clip0_62_143)">
<path d="M0.833857 19.2667C0.832943 22.5435 1.69574 25.743 3.33634 28.5631L0.676956 38.1985L10.6138 35.613C13.3622 37.0978 16.4416 37.8757 19.5708 37.8759H19.5791C29.9094 37.8759 38.3185 29.5343 38.3229 19.2814C38.3249 14.3131 36.3769 9.64128 32.8376 6.12644C29.299 2.61191 24.5927 0.675363 19.5783 0.673096C9.24678 0.673096 0.838274 9.01426 0.834009 19.2667" fill="url(#paint0_linear_62_143)"/>
<path d="M0.164535 19.2606C0.163469 22.6552 1.05719 25.9692 2.75629 28.8902L0.00154114 38.8711L10.2947 36.1929C13.1308 37.7274 16.3239 38.5364 19.5731 38.5376H19.5815C30.2824 38.5376 38.9936 29.8959 38.9982 19.276C39 14.1292 36.9819 9.28941 33.3163 5.64865C29.6501 2.00835 24.7755 0.00211628 19.5815 0C8.87876 0 0.168953 8.64047 0.164687 19.2606H0.164535ZM6.29432 28.3872L5.90999 27.7818C4.29437 25.2325 3.44162 22.2867 3.44284 19.2618C3.44635 10.4346 10.6857 3.25302 19.5876 3.25302C23.8986 3.25484 27.95 4.92247 30.9972 7.94814C34.0442 10.9741 35.721 14.9966 35.7199 19.2748C35.7159 28.1019 28.4764 35.2844 19.5815 35.2844H19.5751C16.6789 35.2829 13.8383 34.5111 11.3611 33.0525L10.7716 32.7056L4.66347 34.2948L6.29432 28.387V28.3872Z" fill="url(#paint1_linear_62_143)"/>
<path d="M14.7287 11.2085C14.3652 10.4069 13.9827 10.3907 13.6371 10.3767C13.3541 10.3646 13.0305 10.3655 12.7073 10.3655C12.3837 10.3655 11.858 10.4863 11.4137 10.9677C10.9689 11.4496 9.7155 12.6142 9.7155 14.9828C9.7155 17.3515 11.454 19.6405 11.6964 19.9621C11.9391 20.283 15.0527 25.2992 19.984 27.2289C24.0823 28.8326 24.9163 28.5136 25.8057 28.4332C26.6953 28.3531 28.6762 27.269 29.0804 26.1448C29.4848 25.0207 29.4848 24.0572 29.3636 23.8559C29.2423 23.6553 28.9188 23.5348 28.4336 23.2941C27.9483 23.0533 25.5631 21.8886 25.1184 21.7279C24.6736 21.5674 24.3502 21.4873 24.0267 21.9694C23.7031 22.4507 22.774 23.5348 22.4909 23.8559C22.208 24.1777 21.9248 24.2177 21.4398 23.9769C20.9543 23.7354 19.3918 23.2276 17.5381 21.5877C16.0959 20.3116 15.1222 18.7357 14.8391 18.2536C14.5561 17.7723 14.8088 17.5114 15.0521 17.2715C15.2701 17.0558 15.5374 16.7093 15.7802 16.4283C16.0221 16.1472 16.1029 15.9466 16.2647 15.6255C16.4266 15.3041 16.3455 15.023 16.2244 14.7822C16.1029 14.5414 15.1601 12.1606 14.7287 11.2087" fill="white"/>
</g>
<defs>
<linearGradient id="paint0_linear_62_143" x1="19.4999" y1="38.1985" x2="19.4999" y2="0.673096" gradientUnits="userSpaceOnUse">
<stop stop-color="#1FAF38"/>
<stop offset="1" stop-color="#60D669"/>
</linearGradient>
<linearGradient id="paint1_linear_62_143" x1="19.4999" y1="38.8711" x2="19.4999" y2="0" gradientUnits="userSpaceOnUse">
<stop stop-color="#F9F9F9"/>
<stop offset="1" stop-color="white"/>
</linearGradient>
<clipPath id="clip0_62_143">
<rect width="39" height="39" fill="white"/>
</clipPath>
</defs>
</svg>
