<svg width="44" height="34" viewBox="0 0 44 34" fill="none" xmlns="http://www.w3.org/2000/svg">
<g clip-path="url(#clip0_62_150)">
<path d="M10 33.8327V16.4081L4.72777 11.4644L0 8.72095V30.7577C0 32.4591 1.34492 33.8327 3.00008 33.8327H10Z" fill="#4285F4"/>
<path d="M34 33.8327H40.9999C42.6601 33.8327 44 32.4541 44 30.7578V8.72119L38.6451 11.8635L34 16.4082V33.8327Z" fill="#34A853"/>
<path d="M10 16.408L9.28262 9.59969L10 3.0835L22 12.3082L34 3.0835L34.8025 9.24789L34 16.408L22 25.6327L10 16.408Z" fill="#EA4335"/>
<path d="M34 3.08355V16.408L44 8.72086V4.62095C44 0.818412 39.765 -1.34931 36.8002 0.931158L34 3.08355Z" fill="#FBBC04"/>
<path d="M0 8.72094L4.5992 12.2566L10 16.4081V3.08363L7.19984 0.931239C4.22984 -1.3494 0 0.818493 0 4.62086V8.72076V8.72094Z" fill="#C5221F"/>
</g>
<defs>
<clipPath id="clip0_62_150">
<rect width="44" height="34" fill="white"/>
</clipPath>
</defs>
</svg>
