<svg width="30" height="27" viewBox="0 0 30 27" fill="none" xmlns="http://www.w3.org/2000/svg">
<path d="M15 2.25C13.3585 2.25 11.733 2.54099 10.2165 3.10636C8.69989 3.67172 7.3219 4.50039 6.16117 5.54505C3.81696 7.65483 2.5 10.5163 2.5 13.5C2.5 18.4725 6.0875 22.6912 11.05 24.1875C11.675 24.2775 11.875 23.9287 11.875 23.625V21.7237C8.4125 22.3988 7.675 20.2162 7.675 20.2162C7.1 18.9112 6.2875 18.5625 6.2875 18.5625C5.15 17.865 6.375 17.8875 6.375 17.8875C7.625 17.9662 8.2875 19.0462 8.2875 19.0462C9.375 20.7563 11.2125 20.25 11.925 19.98C12.0375 19.2488 12.3625 18.7537 12.7125 18.4725C9.9375 18.1912 7.025 17.2238 7.025 12.9375C7.025 11.6888 7.5 10.6875 8.3125 9.88875C8.1875 9.6075 7.75 8.4375 8.4375 6.91875C8.4375 6.91875 9.4875 6.615 11.875 8.06625C12.8625 7.81875 13.9375 7.695 15 7.695C16.0625 7.695 17.1375 7.81875 18.125 8.06625C20.5125 6.615 21.5625 6.91875 21.5625 6.91875C22.25 8.4375 21.8125 9.6075 21.6875 9.88875C22.5 10.6875 22.975 11.6888 22.975 12.9375C22.975 17.235 20.05 18.18 17.2625 18.4613C17.7125 18.81 18.125 19.4963 18.125 20.5425V23.625C18.125 23.9287 18.325 24.2887 18.9625 24.1875C23.925 22.68 27.5 18.4725 27.5 13.5C27.5 12.0226 27.1767 10.5597 26.5485 9.19481C25.9203 7.8299 24.9996 6.58971 23.8388 5.54505C22.6781 4.50039 21.3001 3.67172 19.7835 3.10636C18.267 2.54099 16.6415 2.25 15 2.25Z" fill="#B2B4B2"/>
</svg>
