<svg width="30" height="30" viewBox="0 0 30 30" fill="none" xmlns="http://www.w3.org/2000/svg">
<path d="M20.625 26.2499C11.3203 26.2499 3.75 18.6796 3.75 9.37492C3.75352 7.77889 4.33649 6.23845 5.39053 5.03999C6.44458 3.84153 7.89796 3.0666 9.48047 2.85929C9.88388 2.81456 10.2911 2.8995 10.6429 3.10178C10.9948 3.30406 11.2731 3.61318 11.4375 3.98429L13.793 9.48039C13.9152 9.76567 13.9641 10.077 13.9355 10.386C13.9068 10.695 13.8015 10.992 13.6289 11.2499L11.6836 14.2265C12.5645 16.0142 14.0159 17.4574 15.8086 18.328L18.75 16.371C19.0077 16.1973 19.3054 16.0922 19.615 16.0655C19.9246 16.0389 20.2359 16.0916 20.5195 16.2187L26.0156 18.5624C26.3867 18.7268 26.6959 19.0051 26.8981 19.357C27.1004 19.7089 27.1854 20.116 27.1406 20.5194C26.9333 22.102 26.1584 23.5553 24.9599 24.6094C23.7615 25.6634 22.221 26.2464 20.625 26.2499ZM9.71484 4.72257C8.58393 4.86795 7.54477 5.42056 6.79195 6.27692C6.03912 7.13329 5.62425 8.23469 5.625 9.37492C5.6281 13.3522 7.20945 17.1657 10.0218 19.9781C12.8342 22.7905 16.6477 24.3718 20.625 24.3749C21.7652 24.3757 22.8666 23.9608 23.723 23.208C24.5794 22.4551 25.132 21.416 25.2773 20.2851L19.7812 17.9413L16.8516 19.8984C16.582 20.0766 16.2709 20.1821 15.9486 20.2047C15.6262 20.2273 15.3035 20.1661 15.0117 20.0273C12.8284 18.9711 11.0624 17.2134 9.99609 15.0351C9.8555 14.7443 9.79242 14.4221 9.81295 14.0998C9.83348 13.7774 9.93693 13.4658 10.1133 13.1952L12.0703 10.2187L9.71484 4.72257Z" fill="white"/>
</svg>
