<svg width="42" height="51" viewBox="0 0 42 51" fill="none" xmlns="http://www.w3.org/2000/svg">
<mask id="path-1-outside-1_236_32" maskUnits="userSpaceOnUse" x="0" y="0" width="42" height="51" fill="black">
<rect fill="white" width="42" height="51"/>
<path d="M40.3169 1.26164C40.5268 1.40212 40.699 1.59214 40.8181 1.81493C40.9372 2.03771 40.9997 2.28641 41 2.53907V25.6252C40.9999 25.9326 40.9079 26.2329 40.7357 26.4874C40.5635 26.742 40.319 26.9391 40.0338 27.0534L40.0246 27.0565L40.0062 27.0658L39.9354 27.0935C39.5309 27.2543 39.1236 27.4082 38.7138 27.5552C37.9015 27.8476 36.7723 28.2416 35.4923 28.6325C32.9815 29.4082 29.7108 30.2424 27.1538 30.2424C24.5477 30.2424 22.3908 29.3805 20.5138 28.6264L20.4277 28.5956C18.4769 27.8107 16.8154 27.1643 14.8462 27.1643C12.6923 27.1643 9.80615 27.8722 7.34769 28.6325C6.24694 28.9757 5.15623 29.3504 4.07692 29.7561V48.7113C4.07692 49.1195 3.91484 49.511 3.62632 49.7996C3.3378 50.0882 2.94649 50.2504 2.53846 50.2504C2.13044 50.2504 1.73912 50.0882 1.45061 49.7996C1.16209 49.511 1 49.1195 1 48.7113V2.53907C1 2.13089 1.16209 1.73942 1.45061 1.45078C1.73912 1.16215 2.13044 1 2.53846 1C2.94649 1 3.3378 1.16215 3.62632 1.45078C3.91484 1.73942 4.07692 2.13089 4.07692 2.53907V3.40711C4.77231 3.16394 5.60308 2.88383 6.50769 2.60679C9.01846 1.83726 12.2923 1 14.8462 1C17.4308 1 19.5354 1.85265 21.3723 2.59756L21.5046 2.65297C23.4185 3.42558 25.0862 4.07815 27.1538 4.07815C29.3077 4.07815 32.1938 3.37017 34.6523 2.60987C36.0533 2.1722 37.4378 1.68347 38.8031 1.14467L38.8615 1.12313L38.8738 1.11697H38.8769M37.9231 4.75842C37.2462 4.99851 36.4462 5.27247 35.5662 5.54335C33.0738 6.31904 29.8062 7.15322 27.1538 7.15322C24.4277 7.15322 22.2554 6.27287 20.3754 5.50949L20.3508 5.50025C18.4215 4.72456 16.8123 4.07815 14.8462 4.07815C12.7877 4.07815 9.90462 4.78304 7.41538 5.5495C6.29264 5.89605 5.17942 6.27275 4.07692 6.67918V26.4809C4.75385 26.2408 5.55385 25.9669 6.43385 25.696C8.92615 24.9172 12.1938 24.0861 14.8462 24.0861C17.4523 24.0861 19.6092 24.948 21.4862 25.7021L21.5723 25.7329C23.5231 26.5178 25.1846 27.1643 27.1538 27.1643C29.2092 27.1643 32.0954 26.4594 34.5846 25.6929C35.7074 25.3463 36.8206 24.9696 37.9231 24.5632V4.7615V4.75842Z"/>
</mask>
<path d="M40.3169 1.26164C40.5268 1.40212 40.699 1.59214 40.8181 1.81493C40.9372 2.03771 40.9997 2.28641 41 2.53907V25.6252C40.9999 25.9326 40.9079 26.2329 40.7357 26.4874C40.5635 26.742 40.319 26.9391 40.0338 27.0534L40.0246 27.0565L40.0062 27.0658L39.9354 27.0935C39.5309 27.2543 39.1236 27.4082 38.7138 27.5552C37.9015 27.8476 36.7723 28.2416 35.4923 28.6325C32.9815 29.4082 29.7108 30.2424 27.1538 30.2424C24.5477 30.2424 22.3908 29.3805 20.5138 28.6264L20.4277 28.5956C18.4769 27.8107 16.8154 27.1643 14.8462 27.1643C12.6923 27.1643 9.80615 27.8722 7.34769 28.6325C6.24694 28.9757 5.15623 29.3504 4.07692 29.7561V48.7113C4.07692 49.1195 3.91484 49.511 3.62632 49.7996C3.3378 50.0882 2.94649 50.2504 2.53846 50.2504C2.13044 50.2504 1.73912 50.0882 1.45061 49.7996C1.16209 49.511 1 49.1195 1 48.7113V2.53907C1 2.13089 1.16209 1.73942 1.45061 1.45078C1.73912 1.16215 2.13044 1 2.53846 1C2.94649 1 3.3378 1.16215 3.62632 1.45078C3.91484 1.73942 4.07692 2.13089 4.07692 2.53907V3.40711C4.77231 3.16394 5.60308 2.88383 6.50769 2.60679C9.01846 1.83726 12.2923 1 14.8462 1C17.4308 1 19.5354 1.85265 21.3723 2.59756L21.5046 2.65297C23.4185 3.42558 25.0862 4.07815 27.1538 4.07815C29.3077 4.07815 32.1938 3.37017 34.6523 2.60987C36.0533 2.1722 37.4378 1.68347 38.8031 1.14467L38.8615 1.12313L38.8738 1.11697H38.8769M37.9231 4.75842C37.2462 4.99851 36.4462 5.27247 35.5662 5.54335C33.0738 6.31904 29.8062 7.15322 27.1538 7.15322C24.4277 7.15322 22.2554 6.27287 20.3754 5.50949L20.3508 5.50025C18.4215 4.72456 16.8123 4.07815 14.8462 4.07815C12.7877 4.07815 9.90462 4.78304 7.41538 5.5495C6.29264 5.89605 5.17942 6.27275 4.07692 6.67918V26.4809C4.75385 26.2408 5.55385 25.9669 6.43385 25.696C8.92615 24.9172 12.1938 24.0861 14.8462 24.0861C17.4523 24.0861 19.6092 24.948 21.4862 25.7021L21.5723 25.7329C23.5231 26.5178 25.1846 27.1643 27.1538 27.1643C29.2092 27.1643 32.0954 26.4594 34.5846 25.6929C35.7074 25.3463 36.8206 24.9696 37.9231 24.5632V4.7615V4.75842Z" fill="white"/>
<path d="M40.2659 26.9605L39.6936 25.5322L39.2295 25.7182L39.8018 27.1464L40.2659 26.9605ZM41 2.53907H41.5V2.53848L41 2.53907ZM41 25.6252L41.5 25.6253V25.6252H41ZM40.0338 27.0534L40.1921 27.5278L40.2061 27.5231L40.2199 27.5175L40.0338 27.0534ZM40.0246 27.0565L39.8664 26.5822L39.8327 26.5935L39.8009 26.6094L40.0246 27.0565ZM40.0062 27.0658L40.1884 27.5314L40.2096 27.5231L40.2299 27.5129L40.0062 27.0658ZM39.9354 27.0935L39.7531 26.6279L39.7506 26.6288L39.9354 27.0935ZM38.7138 27.5552L38.5451 27.0845L38.5445 27.0847L38.7138 27.5552ZM35.4923 28.6325L35.3463 28.1543L35.3447 28.1548L35.4923 28.6325ZM20.5138 28.6264L20.7003 28.1624L20.6912 28.1588L20.6821 28.1555L20.5138 28.6264ZM20.4277 28.5956L20.2411 29.0595L20.2502 29.0631L20.2595 29.0664L20.4277 28.5956ZM7.34769 28.6325L7.19997 28.1549L7.19887 28.1552L7.34769 28.6325ZM4.07692 29.7561L3.90101 29.288L3.57692 29.4098V29.7561H4.07692ZM2.53846 1V0.5V1ZM4.07692 2.53907H3.57692H4.07692ZM4.07692 3.40711H3.57692V4.11165L4.24197 3.87909L4.07692 3.40711ZM6.50769 2.60679L6.6541 3.08488L6.65421 3.08484L6.50769 2.60679ZM21.3723 2.59756L21.5655 2.13634L21.5602 2.13421L21.3723 2.59756ZM21.5046 2.65297L21.3115 3.1142L21.3174 3.11661L21.5046 2.65297ZM34.6523 2.60987L34.8 3.08755L34.8014 3.08712L34.6523 2.60987ZM38.8031 1.14467L38.6301 0.675402L38.6195 0.67958L38.8031 1.14467ZM38.8615 1.12313L39.0345 1.59228L39.0605 1.58269L39.0852 1.5703L38.8615 1.12313ZM38.8738 1.11697V0.61697H38.7558L38.6502 0.669798L38.8738 1.11697ZM37.9231 4.75842H38.4231V4.05056L37.7559 4.28718L37.9231 4.75842ZM35.5662 5.54335L35.4191 5.06547L35.4176 5.06594L35.5662 5.54335ZM20.3754 5.50949L20.5636 5.04606L20.551 5.04134L20.3754 5.50949ZM20.3508 5.50025L20.1642 5.96429L20.1752 5.9684L20.3508 5.50025ZM7.41538 5.5495L7.26825 5.07164L7.26792 5.07174L7.41538 5.5495ZM4.07692 6.67918L3.90397 6.21005L3.57692 6.33062V6.67918H4.07692ZM4.07692 26.4809H3.57692V27.1888L4.24406 26.9521L4.07692 26.4809ZM6.43385 25.696L6.58094 26.1739L6.58297 26.1732L6.43385 25.696ZM21.4862 25.7021L21.2997 26.1661L21.3088 26.1697L21.3179 26.173L21.4862 25.7021ZM21.5723 25.7329L21.7589 25.2691L21.7498 25.2654L21.7405 25.2621L21.5723 25.7329ZM34.5846 25.6929L34.7318 26.1708L34.7321 26.1707L34.5846 25.6929ZM37.9231 24.5632L38.096 25.0324L38.4231 24.9118V24.5632H37.9231ZM40.0388 1.67718C40.1805 1.77201 40.2967 1.90028 40.3772 2.0507L41.259 1.57916C41.1012 1.284 40.8731 1.03224 40.595 0.846102L40.0388 1.67718ZM40.3772 2.0507C40.4576 2.20112 40.4998 2.36905 40.5 2.53967L41.5 2.53848C41.4996 2.20378 41.4168 1.87431 41.259 1.57916L40.3772 2.0507ZM40.5 2.53907V25.6252H41.5V2.53907H40.5ZM40.5 25.6251C40.5 25.8326 40.4378 26.0354 40.3215 26.2073L41.1498 26.7676C41.3779 26.4303 41.4999 26.0325 41.5 25.6253L40.5 25.6251ZM40.3215 26.2073C40.2053 26.3791 40.0403 26.5122 39.8478 26.5894L40.2199 27.5175C40.5978 27.366 40.9217 27.1048 41.1498 26.7676L40.3215 26.2073ZM39.8756 26.5791L39.8664 26.5822L40.1828 27.5308L40.1921 27.5278L39.8756 26.5791ZM39.8009 26.6094L39.7824 26.6186L40.2299 27.5129L40.2483 27.5037L39.8009 26.6094ZM39.8239 26.6002L39.7531 26.6279L40.1176 27.5591L40.1884 27.5314L39.8239 26.6002ZM39.7506 26.6288C39.3514 26.7876 38.9495 26.9395 38.5451 27.0845L38.8826 28.0258C39.2978 27.877 39.7103 27.721 40.1201 27.5581L39.7506 26.6288ZM38.5445 27.0847C37.7363 27.3757 36.6155 27.7667 35.3463 28.1543L35.6384 29.1107C36.9291 28.7165 38.0667 28.3195 38.8832 28.0256L38.5445 27.0847ZM35.3447 28.1548C32.8375 28.9294 29.6293 29.7424 27.1538 29.7424V30.7424C29.7922 30.7424 33.1256 29.8871 35.6399 29.1103L35.3447 28.1548ZM27.1538 29.7424C24.656 29.7424 22.5819 28.9185 20.7003 28.1624L20.3274 29.0903C22.1997 29.8426 24.4394 30.7424 27.1538 30.7424V29.7424ZM20.6821 28.1555L20.5959 28.1248L20.2595 29.0664L20.3456 29.0972L20.6821 28.1555ZM20.6143 28.1317C18.6723 27.3503 16.9255 26.6643 14.8462 26.6643V27.6643C16.7053 27.6643 18.2816 28.271 20.2411 29.0595L20.6143 28.1317ZM14.8462 26.6643C12.6112 26.6643 9.663 27.3931 7.19997 28.1549L7.49542 29.1102C9.94931 28.3513 12.7734 27.6643 14.8462 27.6643V26.6643ZM7.19887 28.1552C6.089 28.5012 4.98926 28.879 3.90101 29.288L4.25284 30.2241C5.32321 29.8218 6.40488 29.4502 7.49652 29.1099L7.19887 28.1552ZM3.57692 29.7561V48.7113H4.57692V29.7561H3.57692ZM3.57692 48.7113C3.57692 48.9869 3.46747 49.2513 3.27269 49.4461L3.97994 50.1531C4.36221 49.7707 4.57692 49.252 4.57692 48.7113H3.57692ZM3.27269 49.4461C3.07793 49.6409 2.81382 49.7504 2.53846 49.7504V50.7504C3.07916 50.7504 3.59767 50.5355 3.97994 50.1531L3.27269 49.4461ZM2.53846 49.7504C2.26311 49.7504 1.99899 49.6409 1.80423 49.4461L1.09698 50.1531C1.47925 50.5355 1.99776 50.7504 2.53846 50.7504V49.7504ZM1.80423 49.4461C1.60946 49.2513 1.5 48.9869 1.5 48.7113H0.5C0.5 49.252 0.714718 49.7707 1.09698 50.1531L1.80423 49.4461ZM1.5 48.7113V2.53907H0.5V48.7113H1.5ZM1.5 2.53907C1.5 2.26343 1.60946 1.99912 1.80423 1.80427L1.09698 1.0973C0.714718 1.47972 0.5 1.99834 0.5 2.53907H1.5ZM1.80423 1.80427C1.99899 1.60943 2.26311 1.5 2.53846 1.5V0.5C1.99776 0.5 1.47925 0.714879 1.09698 1.0973L1.80423 1.80427ZM2.53846 1.5C2.81381 1.5 3.07793 1.60943 3.27269 1.80427L3.97994 1.0973C3.59767 0.714879 3.07916 0.5 2.53846 0.5V1.5ZM3.27269 1.80427C3.46747 1.99912 3.57692 2.26343 3.57692 2.53907H4.57692C4.57692 1.99834 4.36221 1.47972 3.97994 1.0973L3.27269 1.80427ZM3.57692 2.53907V3.40711H4.57692V2.53907H3.57692ZM4.24197 3.87909C4.93329 3.63734 5.75756 3.35944 6.6541 3.08488L6.36128 2.12871C5.4486 2.40821 4.61133 2.69054 3.91188 2.93514L4.24197 3.87909ZM6.65421 3.08484C9.16276 2.31599 12.3738 1.5 14.8462 1.5V0.5C12.2108 0.5 8.87416 1.35853 6.36117 2.12874L6.65421 3.08484ZM14.8462 1.5C17.3217 1.5 19.343 2.31418 21.1844 3.06091L21.5602 2.13421C19.7278 1.39112 17.5399 0.5 14.8462 0.5V1.5ZM21.1792 3.05875L21.3115 3.11416L21.6978 2.19177L21.5654 2.13637L21.1792 3.05875ZM21.3174 3.11661C23.2257 3.88699 24.977 4.57815 27.1538 4.57815V3.57815C25.1953 3.57815 23.6112 2.96417 21.6918 2.18932L21.3174 3.11661ZM27.1538 4.57815C29.3888 4.57815 32.337 3.84927 34.8 3.08755L34.5046 2.13219C32.0507 2.89108 29.2266 3.57815 27.1538 3.57815V4.57815ZM34.8014 3.08712C36.214 2.64582 37.61 2.15304 38.9866 1.60977L38.6195 0.67958C37.2656 1.21391 35.8925 1.69858 34.5032 2.13262L34.8014 3.08712ZM38.976 1.61382L39.0345 1.59228L38.6886 0.653977L38.6302 0.675524L38.976 1.61382ZM39.0852 1.5703L39.0975 1.56414L38.6502 0.669798L38.6378 0.675954L39.0852 1.5703ZM38.8738 1.61697H38.8769V0.61697H38.8738V1.61697ZM37.7559 4.28718C37.083 4.52587 36.2901 4.79736 35.4191 5.06547L35.7133 6.02122C36.6022 5.74758 37.4093 5.47116 38.0902 5.22966L37.7559 4.28718ZM35.4176 5.06594C32.9312 5.83978 29.7252 6.65322 27.1538 6.65322V7.65322C29.8871 7.65322 33.2165 6.7983 35.7147 6.02076L35.4176 5.06594ZM27.1538 6.65322C24.5361 6.65322 22.4461 5.81067 20.5635 5.04622L20.1873 5.97275C22.0646 6.73506 24.3193 7.65322 27.1538 7.65322V6.65322ZM20.551 5.04134L20.5264 5.03211L20.1752 5.9684L20.1998 5.97763L20.551 5.04134ZM20.5373 5.03635C18.6203 4.26555 16.9237 3.57815 14.8462 3.57815V4.57815C16.7009 4.57815 18.2228 5.18356 20.1642 5.96416L20.5373 5.03635ZM14.8462 3.57815C12.706 3.57815 9.76006 4.30439 7.26825 5.07164L7.56252 6.02736C10.0492 5.2617 12.8694 4.57815 14.8462 4.57815V3.57815ZM7.26792 5.07174C6.1366 5.42094 5.01488 5.80051 3.90397 6.21005L4.24987 7.14832C5.34395 6.74498 6.44868 6.37116 7.56285 6.02726L7.26792 5.07174ZM3.57692 6.67918V26.4809H4.57692V6.67918H3.57692ZM4.24406 26.9521C4.91703 26.7135 5.70992 26.442 6.58094 26.1739L6.28675 25.2181C5.39777 25.4918 4.59066 25.7682 3.90978 26.0097L4.24406 26.9521ZM6.58297 26.1732C9.06842 25.3966 12.2746 24.5861 14.8462 24.5861V23.5861C12.1131 23.5861 8.78389 24.4378 6.28472 25.2187L6.58297 26.1732ZM14.8462 24.5861C17.344 24.5861 19.4181 25.4101 21.2997 26.1661L21.6726 25.2382C19.8003 24.4859 17.5606 23.5861 14.8462 23.5861V24.5861ZM21.3179 26.173L21.4041 26.2038L21.7405 25.2621L21.6544 25.2313L21.3179 26.173ZM21.3857 26.1968C23.3277 26.9782 25.0745 27.6643 27.1538 27.6643V26.6643C25.2947 26.6643 23.7184 26.0575 21.7589 25.2691L21.3857 26.1968ZM27.1538 27.6643C29.2909 27.6643 32.2399 26.938 34.7318 26.1708L34.4375 25.215C31.9509 25.9807 29.1276 26.6643 27.1538 26.6643V27.6643ZM34.7321 26.1707C35.8634 25.8214 36.9851 25.4419 38.096 25.0324L37.7501 24.0941C36.656 24.4974 35.5513 24.8712 34.4371 25.2152L34.7321 26.1707ZM38.4231 24.5632V4.7615H37.4231V24.5632H38.4231ZM38.4231 4.7615V4.75842H37.4231V4.7615H38.4231Z" fill="white" mask="url(#path-1-outside-1_236_32)"/>
</svg>
